<svg xmlns="http://www.w3.org/2000/svg" width="31.999" height="25.262" viewBox="0 0 31.999 25.262">
    <path id="Icon"
        d="M272.923,252.7c-2.309,0-3.569-.932-5.074-2.436a5.272,5.272,0,0,0-.561-.489,5.387,5.387,0,0,0-3.508-1.061c9.955,8.664,1.759,24.888-11.227,21.859h0a12.627,12.627,0,0,1,3.424-24.883v-.007h8.133a8.269,8.269,0,0,1,5.883,2.437c1.2,1.2,1.754,1.549,2.93,1.549h2.015v3.03Zm-10.471,10.875a3.1,3.1,0,1,0-3.1-3.1A3.1,3.1,0,0,0,262.452,263.572Zm-6.878,5.04a3.1,3.1,0,1,0-3.1-3.1A3.1,3.1,0,0,0,255.574,268.612Zm-9.984-8.144a3.1,3.1,0,1,0,3.1-3.1A3.1,3.1,0,0,0,245.59,260.468Zm5.622-10.99a3.1,3.1,0,1,0,3.1,3.1A3.1,3.1,0,0,0,251.212,249.478Zm4.362,7.016a1.815,1.815,0,1,0,1.814,1.814A1.816,1.816,0,0,0,255.574,256.494Zm4.362-7.016a3.1,3.1,0,1,0,3.1,3.1A3.1,3.1,0,0,0,259.935,249.478Z"
        transform="translate(-242.938 -245.681)" />
</svg>
