<svg xmlns="http://www.w3.org/2000/svg" width="32" height="27.096" viewBox="0 0 32 27.096">
  <g id="Icon" transform="translate(-240 -242.218)" opacity="1">
    <path id="Path_2" data-name="Path 2" d="M254.7,244.387v.7a7.294,7.294,0,0,1,1.538.022.955.955,0,0,1,.71.537l1.358,2.894a.942.942,0,0,1,.45.246,1.282,1.282,0,0,0,.582.338,1.262,1.262,0,0,0,1.2-.317.967.967,0,0,1,1.189-.152.956.956,0,0,1,.175,1.49,3.148,3.148,0,0,1-2.242.929c-.054,0-.108,0-.162,0l1.825,3.89c.077.164.15.33.22.5a6,6,0,0,1,6.026,1.448.973.973,0,0,1,.065,1.334.955.955,0,0,1-1.391.042,4.088,4.088,0,0,0-4.1-1.012,12.669,12.669,0,0,1-.052,6.357c.258.085.521.162.788.228a1.958,1.958,0,0,0,.944,0A10.77,10.77,0,0,0,272,253.4v-9.008a1.071,1.071,0,0,0-.692-1,27.733,27.733,0,0,0-15.914,0A1.072,1.072,0,0,0,254.7,244.387Zm10.561,4.4a.955.955,0,0,1,1.351,0,1.259,1.259,0,0,0,1.781,0,.955.955,0,1,1,1.351,1.351,3.169,3.169,0,0,1-4.483,0A.955.955,0,0,1,265.262,248.79Z"/>
    <path id="Path_3" data-name="Path 3" d="M259.59,255.768l-3.847-8.2a1,1,0,0,0-.985-.574,27.685,27.685,0,0,0-14.454,6.762,1.072,1.072,0,0,0-.2,1.2l3.826,8.155a10.773,10.773,0,0,0,11.846,5.991,1.949,1.949,0,0,0,.851-.4A10.77,10.77,0,0,0,259.59,255.768Zm-7.73-.611a3.172,3.172,0,0,1,4.058-1.9.955.955,0,1,1-.649,1.8,1.263,1.263,0,0,0-1.613.757.955.955,0,1,1-1.8-.649Zm-3.7,3.225a1.261,1.261,0,0,0-1.613.757.955.955,0,1,1-1.8-.649,3.169,3.169,0,0,1,4.059-1.9.955.955,0,1,1-.649,1.8Zm3.208,6.245a5.979,5.979,0,0,1-2.032-.357.955.955,0,1,1,.649-1.8,4.089,4.089,0,0,0,5.23-2.454.955.955,0,1,1,1.8.65A6.006,6.006,0,0,1,251.373,264.627Z"/>
  </g>
</svg>
