<svg xmlns="http://www.w3.org/2000/svg" width="24" height="23.998" viewBox="0 0 24 23.998">
  <g id="Icon" transform="translate(-10.766 -10.767)" opacity="1">
    <path id="Path_5" data-name="Path 5" d="M22.766,10.767a12,12,0,1,0,12,12A12,12,0,0,0,22.766,10.767Zm0,3.588A3.969,3.969,0,1,1,18.8,18.324,3.969,3.969,0,0,1,22.766,14.355Zm0,17.273a8.8,8.8,0,0,1-5.735-2.115,1.691,1.691,0,0,1-.593-1.285,4,4,0,0,1,4.022-4h4.619a4,4,0,0,1,4.016,4,1.687,1.687,0,0,1-.593,1.285A8.8,8.8,0,0,1,22.763,31.628Z"/>
  </g>
</svg>
