<svg xmlns="http://www.w3.org/2000/svg" width="22.658" height="24" viewBox="0 0 22.658 24">
  <g id="Group_1" data-name="Group 1" transform="translate(-244.67 -244)">
    <g id="Group_3" data-name="Group 3">
      <g id="Group_2" data-name="Group 2">
        <g id="Group_1-2" data-name="Group 1">
          <path id="Path_6" data-name="Path 6" d="M252.447,262.517a2.742,2.742,0,1,0,2.741,2.741A2.744,2.744,0,0,0,252.447,262.517Zm0,3.8a1.063,1.063,0,1,1,1.063-1.062A1.064,1.064,0,0,1,252.447,266.321Z"/>
          <path id="Path_7" data-name="Path 7" d="M262.4,262.517a2.742,2.742,0,1,0,2.741,2.741A2.744,2.744,0,0,0,262.4,262.517Zm0,3.8a1.063,1.063,0,1,1,1.063-1.063A1.064,1.064,0,0,1,262.4,266.321Z"/>
          <path id="Path_8" data-name="Path 8" d="M251.244,261.678h13.063a.839.839,0,0,0,0-1.678H251.958l-2.4-14.737a.838.838,0,0,0-.684-.691l-3.217-.56a.839.839,0,0,0-.288,1.654l2.628.457,2.422,14.851A.839.839,0,0,0,251.244,261.678Z"/>
        </g>
      </g>
    </g>
    <g id="Group_5" data-name="Group 5">
      <g id="Group_4" data-name="Group 4">
        <path id="Path_9" data-name="Path 9" d="M267.167,249.436a.838.838,0,0,0-.678-.345H249.426v1.678h15.912l-1.726,5.371H250.629v1.678h13.594a.839.839,0,0,0,.8-.582l2.266-7.049A.838.838,0,0,0,267.167,249.436Z"/>
      </g>
    </g>
  </g>
</svg>
